<?xml version="1.0" encoding="UTF-8" standalone="no"?>
<svg
   xmlns:dc="http://purl.org/dc/elements/1.1/"
   xmlns:cc="http://creativecommons.org/ns#"
   xmlns:rdf="http://www.w3.org/1999/02/22-rdf-syntax-ns#"
   xmlns:svg="http://www.w3.org/2000/svg"
   xmlns="http://www.w3.org/2000/svg"
   xmlns:sodipodi="http://sodipodi.sourceforge.net/DTD/sodipodi-0.dtd"
   xmlns:inkscape="http://www.inkscape.org/namespaces/inkscape"
   width="210mm"
   height="297mm"
   viewBox="0 0 448 512"
   version="1.1"
   id="svg841"
   inkscape:version="1.0.2 (e86c870879, 2021-01-15, custom)"
   sodipodi:docname="fill2.svg">
  <defs
     id="defs835" />
  <sodipodi:namedview
     id="base"
     pagecolor="#ffffff"
     bordercolor="#666666"
     borderopacity="1.0"
     inkscape:pageopacity="0.0"
     inkscape:pageshadow="2"
     inkscape:zoom="0.49497475"
     inkscape:cx="121.95349"
     inkscape:cy="530.35234"
     inkscape:document-units="mm"
     inkscape:current-layer="layer1"
     inkscape:document-rotation="0"
     showgrid="false"
     inkscape:window-width="1920"
     inkscape:window-height="1003"
     inkscape:window-x="-9"
     inkscape:window-y="-9"
     inkscape:window-maximized="1" />
  <metadata
     id="metadata838">
    <rdf:RDF>
      <cc:Work
         rdf:about="">
        <dc:format>image/svg+xml</dc:format>
        <dc:type
           rdf:resource="http://purl.org/dc/dcmitype/StillImage" />
        <dc:title />
      </cc:Work>
    </rdf:RDF>
  </metadata>
  <g
     inkscape:label="Layer 1"
     inkscape:groupmode="layer"
     id="layer1">
    <path
       id="path907"
       style="fill:#444a55;fill-opacity:0.70220602;fill-rule:evenodd;stroke:none;stroke-linecap:butt;stroke-linejoin:miter;stroke-opacity:1;stroke-width:9.999972126"
       d="M 19.4204 218.284 C 17.7089 218.274 15.9724 218.278 14.2224 218.288 C 13.7313 218.291 13.2363 218.296 12.7419 218.301 C 11.4472 218.313 10.1409 218.331 8.82495 218.355 C 8.2725 218.365 7.72202 218.374 7.16579 218.386 C 5.37387 218.425 3.56901 218.471 1.73743 218.531 L 0.5446 218.571 L 0.413411 349.939 L 14.9335 356.735 C 44.8699 370.746 66.3509 373.671 82.174 371.612 C 97.9971 369.552 105.796 365.889 122.808 350.256 C 139.816 334.629 157.251 302.192 170.791 271.228 C 160.429 261.485 149.292 252.79 136.529 245.382 C 135.626 244.858 134.713 244.34 133.791 243.827 C 133.602 243.722 133.41 243.619 133.221 243.515 C 132.501 243.117 131.779 242.722 131.047 242.331 C 130.751 242.173 130.451 242.017 130.153 241.86 C 129.188 241.352 128.212 240.849 127.226 240.353 C 126.24 239.857 125.243 239.367 124.235 238.883 C 123.24 238.406 122.234 237.935 121.217 237.47 C 120.598 237.188 119.974 236.908 119.347 236.63 C 119.323 236.619 119.298 236.609 119.274 236.598 C 118.928 236.445 118.582 236.292 118.233 236.141 C 117.575 235.855 116.909 235.573 116.241 235.293 C 115.839 235.124 115.439 234.954 115.033 234.787 C 114.378 234.517 113.715 234.253 113.051 233.989 C 113.047 233.987 113.043 233.985 113.039 233.984 C 112.644 233.827 112.252 233.668 111.854 233.512 C 111.049 233.199 110.234 232.892 109.415 232.586 C 109.383 232.575 109.352 232.563 109.32 232.551 C 109.087 232.464 108.859 232.374 108.625 232.288 C 106.425 231.478 104.171 230.698 101.863 229.947 C 101.857 229.945 101.851 229.944 101.845 229.942 C 101.472 229.82 101.091 229.703 100.716 229.583 C 99.9351 229.335 99.1532 229.086 98.3599 228.845 L 98.3588 228.845 C 97.9388 228.717 97.5123 228.593 97.0888 228.467 C 96.3231 228.239 95.5546 228.012 94.777 227.791 C 94.7602 227.786 94.7431 227.781 94.7263 227.776 C 94.3165 227.66 93.9025 227.546 93.4893 227.431 C 92.6996 227.212 91.9048 226.995 91.1026 226.783 C 91.0926 226.78 91.0827 226.778 91.0728 226.775 C 90.6107 226.653 90.1457 226.533 89.6793 226.413 C 88.8711 226.205 88.0562 226.001 87.2353 225.8 C 86.7881 225.69 86.3402 225.582 85.8892 225.475 C 85.0755 225.281 84.2527 225.091 83.4264 224.905 C 83.403 224.9 83.3793 224.894 83.3558 224.889 C 82.8649 224.778 82.3751 224.667 81.8797 224.558 C 81.0746 224.383 80.2594 224.213 79.4422 224.044 C 79.404 224.036 79.3657 224.027 79.3275 224.019 C 78.8761 223.926 78.4289 223.832 77.9738 223.74 C 76.9099 223.527 75.8315 223.322 74.7469 223.12 C 74.4559 223.066 74.1696 223.009 73.8771 222.955 C 71.0803 222.446 68.2157 221.973 65.2771 221.541 C 65.0748 221.511 64.8671 221.484 64.6641 221.455 C 63.4188 221.275 62.1632 221.101 60.8916 220.935 C 60.4886 220.882 60.078 220.834 59.6723 220.783 C 58.5761 220.645 57.4743 220.51 56.3584 220.382 C 55.8583 220.325 55.3511 220.272 54.847 220.217 C 53.8326 220.107 52.813 220 51.7822 219.898 C 51.2062 219.842 50.6249 219.788 50.0437 219.734 C 49.0104 219.639 47.9703 219.546 46.9205 219.46 C 46.3653 219.414 45.807 219.371 45.247 219.327 C 44.1786 219.245 43.1015 219.167 42.0158 219.094 C 41.4378 219.055 40.8591 219.016 40.2762 218.98 C 39.2403 218.916 38.1925 218.858 37.1409 218.803 C 36.5 218.769 35.8616 218.733 35.2149 218.702 L 35.2094 218.702 C 34.1079 218.65 32.9923 218.606 31.8734 218.563 C 31.2758 218.541 30.6836 218.515 30.0809 218.495 C 28.6382 218.447 27.1781 218.409 25.7065 218.377 C 25.4491 218.371 25.1974 218.362 24.9392 218.357 C 23.1215 218.321 21.2828 218.296 19.4204 218.284 Z M 221.47 329.336 C 208.198 355.349 192.528 379.701 172.098 399.959 C 151.62 420.266 124.919 436.008 93.6194 440.683 L 448.322 440.683 L 448.381 439.529 C 409.038 440.334 375.558 435.222 347.037 425.763 C 345.539 425.266 344.055 424.758 342.584 424.237 C 342.446 424.188 342.31 424.138 342.172 424.088 C 340.846 423.616 339.527 423.136 338.222 422.645 C 338.024 422.571 337.83 422.493 337.632 422.418 C 336.388 421.946 335.149 421.468 333.925 420.978 C 333.848 420.948 333.772 420.916 333.696 420.885 C 333.545 420.823 333.394 420.761 333.242 420.699 C 332.048 420.217 330.859 419.73 329.683 419.232 C 329.47 419.142 329.261 419.048 329.049 418.958 C 327.884 418.46 326.724 417.959 325.577 417.446 C 325.238 417.294 324.904 417.137 324.566 416.983 C 323.253 416.387 321.952 415.782 320.663 415.166 C 319.595 414.656 318.531 414.145 317.48 413.622 C 317.18 413.473 316.887 413.318 316.588 413.168 C 315.582 412.661 314.577 412.152 313.585 411.633 C 312.291 410.956 311.008 410.268 309.74 409.57 C 309.569 409.476 309.401 409.38 309.232 409.285 C 309 409.154 308.768 409.023 308.536 408.893 C 303.887 406.297 299.401 403.574 295.087 400.719 C 263.515 379.826 241.288 353.866 221.551 329.457 C 221.524 329.415 221.497 329.377 221.47 329.336 Z M 0.336241 426.689 L 0.321909 440.683 L 51.2398 440.683 C 34.9314 438.455 17.9655 433.77 0.336241 426.689 Z" />
    <path
       id="path959"
       style="color:#000000;font-style:normal;font-variant:normal;font-weight:normal;font-stretch:normal;font-size:medium;line-height:normal;font-family:sans-serif;font-variant-ligatures:normal;font-variant-position:normal;font-variant-caps:normal;font-variant-numeric:normal;font-variant-alternates:normal;font-variant-east-asian:normal;font-feature-settings:normal;font-variation-settings:normal;text-indent:0;text-align:start;text-decoration:none;text-decoration-line:none;text-decoration-style:solid;text-decoration-color:#000000;letter-spacing:normal;word-spacing:normal;text-transform:none;writing-mode:lr-tb;direction:ltr;text-orientation:mixed;dominant-baseline:auto;baseline-shift:baseline;text-anchor:start;white-space:normal;shape-padding:0;shape-margin:0;inline-size:0;clip-rule:nonzero;display:inline;overflow:visible;visibility:visible;opacity:1;isolation:auto;mix-blend-mode:normal;color-interpolation:sRGB;color-interpolation-filters:linearRGB;solid-color:#000000;solid-opacity:1;vector-effect:none;fill:#000000;fill-opacity:0.7;fill-rule:evenodd;stroke:none;stroke-width:0.999998;stroke-linecap:square;stroke-linejoin:miter;stroke-miterlimit:1;stroke-dasharray:none;stroke-dashoffset:0;stroke-opacity:1;color-rendering:auto;image-rendering:auto;shape-rendering:auto;text-rendering:auto;enable-background:accumulate;stop-color:#000000;stop-opacity:1"
       d="m 221.55117,329.45701 c 19.73729,24.40961 41.96474,50.36869 73.5369,71.26134 37.86901,25.05953 88.3668,40.60741 156.0625,38.75586 l 34.98633,-0.95704 -1.91406,-69.97265 -34.98633,0.95703 c -56.6948,1.55067 -89.55965,-9.97944 -115.51953,-27.1582 -25.95988,-17.17877 -45.83225,-42.22955 -69.29101,-71.25391 -3.61725,-4.47544 -7.32636,-9.04207 -11.1669,-13.65468" />
    <path
       id="path1454"
       style="color:#000000;font-style:normal;font-variant:normal;font-weight:normal;font-stretch:normal;font-size:medium;line-height:normal;font-family:sans-serif;font-variant-ligatures:normal;font-variant-position:normal;font-variant-caps:normal;font-variant-numeric:normal;font-variant-alternates:normal;font-variant-east-asian:normal;font-feature-settings:normal;font-variation-settings:normal;text-indent:0;text-align:start;text-decoration:none;text-decoration-line:none;text-decoration-style:solid;text-decoration-color:#000000;letter-spacing:normal;word-spacing:normal;text-transform:none;writing-mode:lr-tb;direction:ltr;text-orientation:mixed;dominant-baseline:auto;baseline-shift:baseline;text-anchor:start;white-space:normal;shape-padding:0;shape-margin:0;inline-size:0;clip-rule:nonzero;display:inline;overflow:visible;visibility:visible;opacity:1;isolation:auto;mix-blend-mode:normal;color-interpolation:sRGB;color-interpolation-filters:linearRGB;solid-color:#000000;solid-opacity:1;vector-effect:none;fill:#000000;fill-opacity:1;fill-rule:evenodd;stroke:none;stroke-width:0.999998;stroke-linecap:square;stroke-linejoin:miter;stroke-miterlimit:4;stroke-dasharray:none;stroke-dashoffset:0;stroke-opacity:1;color-rendering:auto;image-rendering:auto;shape-rendering:auto;text-rendering:auto;enable-background:accumulate;stop-color:#000000;stop-opacity:1"
       d="m -392.42464,-57.95839 c -18.13901,0 -33.97682,8.12591 -45.06405,17.192406 -11.08723,9.06649 -19.1319,19.324624 -26.69205,29.989413 -15.12031,21.329581 -28.20207,45.11072 -42.98818,65.926449 -14.78608,20.815734 -30.72562,37.804439 -47.78485,47.070472 -17.05922,9.26604 -35.33216,13.27052 -65.98818,5.13071 l -9.62311,-2.55543 v 77.3333 c 42.41458,9.02028 81.15307,2.42843 111.40832,-14.00528 32.52964,-17.66908 55.16153,-44.2432 73.13083,-69.540214 17.9693,-25.297011 31.82733,-50.180092 43.03117,-65.984874 3.40838,-4.808062 6.32756,-8.297486 8.83377,-11.052968 1.82363,2.699946 3.95501,6.118036 6.17582,10.250395 9.20449,17.127209 19.91536,44.098017 34.51159,71.204881 14.59622,27.10688 33.48847,56.0331 65.49429,74.18807 28.48433,16.15745 66.06131,19.27143 105.41441,6.41284 v -80.75083 l -14.66232,6.22873 c -29.65686,12.59854 -41.95178,9.56526 -53.74791,2.87403 -11.7961,-6.69123 -24.72904,-22.72064 -36.46289,-44.511729 -11.73382,-21.791088 -21.85964,-47.661072 -34.48292,-71.1497665 -6.31164,-11.7443445 -13.14251,-23.1498645 -23.71218,-33.6803535 -10.56965,-10.53049 -27.50334,-20.570251 -46.79156,-20.570251 z" />
    <path
       id="path1406-2"
       style="fill:#434a55;fill-opacity:0.69852901;fill-rule:evenodd;stroke:none;stroke-width:9.99998;stroke-linecap:butt;stroke-linejoin:miter;stroke-opacity:1"
       d="m 375.29297,91.881901 c -0.82335,0.0031 -1.62854,0.02354 -2.42424,0.05292 -0.40336,0.01489 -0.80419,0.03264 -1.20055,0.05402 -0.22345,0.01206 -0.44573,0.02451 -0.66697,0.03858 -0.002,1.19e-4 -0.004,-1.13e-4 -0.006,0 -0.59183,0.03771 -1.17775,0.08164 -1.75397,0.133395 -0.003,2.37e-4 -0.005,8.7e-4 -0.008,0.0011 -0.55157,0.0496 -1.09741,0.103411 -1.6349,0.165359 -15.48581,1.784841 -27.08403,8.032115 -39.65774,20.418115 -25.14741,24.77199 -47.76008,76.19203 -69.99,131.37113 -22.22992,55.1791 -44.14561,114.11184 -86.15054,155.76572 -1.08119,1.07216 -2.18394,2.12812 -3.29957,3.1739 -0.19643,0.18532 -0.39165,0.37175 -0.58981,0.55562 -0.42306,0.39262 -0.852,0.77995 -1.27991,1.16858 -0.12406,0.11266 -0.24797,0.2254 -0.37153,0.33845 -0.11913,0.109 -0.23789,0.21832 -0.35828,0.32631 -0.37735,0.33848 -0.75999,0.67233 -1.14102,1.00763 -0.31213,0.27465 -0.62247,0.55104 -0.93706,0.82351 -0.39027,0.33803 -0.78557,0.6719 -1.17961,1.00652 -0.29121,0.24727 -0.58096,0.49547 -0.87423,0.74084 -0.42664,0.35701 -0.85776,0.70982 -1.28874,1.06274 -0.27579,0.2258 -0.55036,0.45279 -0.82792,0.67689 -0.39703,0.32061 -0.79772,0.63765 -1.19834,0.9547 -0.70638,0.55903 -1.41794,1.11259 -2.13541,1.66026 -0.17089,0.13045 -0.34259,0.26007 -0.51373,0.39027 -0.17072,0.12988 -0.34088,0.26034 -0.51263,0.38915 -0.43769,0.32833 -0.87899,0.65277 -1.32072,0.97676 -0.28982,0.21253 -0.57936,0.42546 -0.87092,0.6361 -0.46145,0.33345 -0.9266,0.66246 -1.39236,0.99108 -0.27806,0.19614 -0.55607,0.39211 -0.83565,0.58649 -0.47541,0.33063 -0.95334,0.65789 -1.43315,0.98337 -0.16335,0.1108 -0.32694,0.22141 -0.49059,0.33184 -0.12115,0.0818 -0.24222,0.1635 -0.3638,0.24473 -0.49617,0.3316 -0.99521,0.65958 -1.496,0.98558 -0.25521,0.16609 -0.51089,0.33148 -0.76729,0.49609 -0.60115,0.38606 -1.20582,0.76762 -1.8135,1.14543 -0.17225,0.10667 -0.34444,0.21341 -0.51704,0.3197 -0.53871,0.33182 -1.07902,0.66147 -1.62278,0.98668 -0.24372,0.14572 -0.48837,0.28997 -0.73311,0.43436 -0.61355,0.36205 -1.23002,0.7203 -1.84988,1.07376 -0.95691,0.54566 -1.92204,1.07941 -2.89388,1.60404 -0.63166,0.34099 -1.26489,0.67904 -1.9028,1.01093 -0.0723,0.0376 -0.14464,0.0752 -0.21717,0.11245 -0.0746,0.0383 -0.1493,0.0762 -0.2238,0.11465 -0.75217,0.38795 -1.50807,0.77041 -2.2688,1.14542 -0.0183,0.009 -0.0368,0.0175 -0.0551,0.0265 -11.50569,5.66564 -23.98562,9.83257 -37.313965,11.99334 H 447.80018 l 1.44088,-324.72201 -15.15842,-7.38518 c -3.1e-4,-1.4e-4 -8e-4,1.5e-4 -0.001,0 -1.43258,-0.69794 -2.83964,-1.36226 -4.23333,-2.00863 -0.20754,-0.0962 -0.41618,-0.1948 -0.62287,-0.28994 -0.017,-0.008 -0.0337,-0.0142 -0.0507,-0.0221 -1.317,-0.60577 -2.61562,-1.18882 -3.89819,-1.74955 -0.26089,-0.11407 -0.51993,-0.22512 -0.77942,-0.33735 -1.29186,-0.55873 -2.57047,-1.10215 -3.82763,-1.61616 -0.0667,-0.0273 -0.13186,-0.0522 -0.19845,-0.0794 -0.002,-7.7e-4 -0.004,-0.001 -0.005,-0.002 -1.2717,-0.5183 -2.52264,-1.01012 -3.7593,-1.48387 -0.17481,-0.067 -0.35173,-0.13566 -0.52585,-0.20175 -1.20899,-0.45892 -2.39936,-0.895579 -3.57518,-1.312999 -0.21389,-0.0759 -0.42662,-0.15031 -0.63942,-0.22489 -0.003,-0.001 -0.007,-0.002 -0.01,-0.003 -1.19912,-0.420169 -2.3849,-0.823559 -3.54983,-1.201648 -0.0986,-0.03199 -0.19492,-0.06201 -0.29324,-0.09371 -0.0179,-0.0058 -0.035,-0.01077 -0.0529,-0.01653 -1.08205,-0.34837 -2.14857,-0.676927 -3.20145,-0.989985 -0.1778,-0.05287 -0.35771,-0.109079 -0.53468,-0.160957 -1.09664,-0.321457 -2.17476,-0.620906 -3.24005,-0.905092 -0.19595,-0.05227 -0.39159,-0.103305 -0.58649,-0.154342 -1.07029,-0.280269 -2.12725,-0.545626 -3.16618,-0.789341 -0.14995,-0.03517 -0.29719,-0.06699 -0.44649,-0.10142 -0.98383,-0.226878 -1.95441,-0.438822 -2.91041,-0.633899 -0.10971,-0.02239 -0.22139,-0.04748 -0.33073,-0.06945 -3.6e-4,-7.3e-5 -7.4e-4,7.3e-5 -10e-4,0 -1.01305,-0.203595 -2.0076,-0.38547 -2.98978,-0.554522 -0.17153,-0.02952 -0.34314,-0.0597 -0.51374,-0.08819 -7.3e-4,-1.24e-4 -10e-4,1.24e-4 -0.002,0 -0.96729,-0.161533 -1.92096,-0.308514 -2.85861,-0.437665 -0.13645,-0.0188 -0.27096,-0.03479 -0.40679,-0.05292 -1.92695,-0.257127 -3.79153,-0.447356 -5.59594,-0.575468 -0.16077,-0.01141 -0.32195,-0.02374 -0.48176,-0.03418 -0.85586,-0.0559 -1.69903,-0.09816 -2.52787,-0.12678 -1.00993,-0.03487 -2.00261,-0.05327 -2.97326,-0.04961 z M -0.19927194,426.51697 v 13.83991 H 49.183008 c -5.88127,-0.86452 -11.84747,-2.04746 -17.89907,-3.54431 -0.0254,-0.006 -0.0507,-0.0125 -0.0761,-0.0187 -0.96448,-0.23896 -1.93168,-0.48701 -2.9005,-0.74194 -0.14187,-0.0373 -0.28357,-0.0737 -0.42554,-0.11134 -1.92388,-0.51053 -3.85672,-1.05282 -5.79768,-1.62609 -0.16785,-0.0496 -0.33583,-0.0999 -0.50381,-0.14993 -0.88616,-0.264 -1.77376,-0.53326 -2.66347,-0.81029 -0.0598,-0.0186 -0.11986,-0.0372 -0.1797,-0.0562 -1.00768,-0.31466 -2.01723,-0.6366 -3.02948,-0.96793 -0.10311,-0.0337 -0.20662,-0.0686 -0.30978,-0.10253 -5.14035,-1.69036 -10.3390305,-3.59289 -15.59718994,-5.71059 z m 93.39901894,14.1067 c -0.76129,0.11296 -1.523039,0.22545 -2.289748,0.32522 0.766609,-0.0998 1.529308,-0.21021 2.289748,-0.32522 z m -2.289748,0.32522 c -0.93118,0.12117 -1.865199,0.23062 -2.801278,0.33294 0.936169,-0.10227 1.870028,-0.21176 2.801278,-0.33294 z m -39.264161,-0.25025 c 0.13452,0.0178 0.26905,0.0365 0.40349,0.054 -0.13445,-0.0175 -0.26895,-0.0362 -0.40349,-0.054 z m 2.72631,0.33955 c 0.17364,0.0202 0.34685,0.0399 0.52034,0.0595 -0.17345,-0.0196 -0.34674,-0.0394 -0.52034,-0.0595 z m 32.778574,0.34175 c -0.62302,0.0637 -1.246759,0.12429 -1.871938,0.17969 0.625069,-0.0553 1.249028,-0.11604 1.871938,-0.17969 z m -2.956737,0.2712 c -0.59788,0.0483 -1.197109,0.0915 -1.796959,0.13229 0.59995,-0.0407 1.198999,-0.0841 1.796959,-0.13229 z m -2.925848,0.20615 c -0.582489,0.0349 -1.166309,0.0637 -1.750649,0.0915 0.58424,-0.0277 1.16827,-0.0567 1.750649,-0.0915 z m -16.691889,0.043 c 0.27896,0.0147 0.55817,0.0309 0.83674,0.0441 -0.2785,-0.0131 -0.55785,-0.0295 -0.83674,-0.0441 z m 13.79802,0.10252 c -0.76117,0.0302 -1.52435,0.0523 -2.28865,0.0706 0.76445,-0.0181 1.52732,-0.0405 2.28865,-0.0706 z m -11.19629,0.0132 c 0.39317,0.0141 0.78612,0.0264 1.1785,0.0375 -0.39242,-0.011 -0.78528,-0.0235 -1.1785,-0.0375 z m 2.80017,0.0761 c 0.43872,0.008 0.87639,0.0105 1.3141,0.0143 -0.43762,-0.004 -0.87547,-0.007 -1.3141,-0.0143 z m 4.38547,0.009 c -0.5027,0.006 -1.00518,0.0134 -1.50923,0.0143 0.50401,-8.5e-4 1.00657,-0.008 1.50923,-0.0143 z" />
    <path
       id="path1260"
       style="color:#000000;font-style:normal;font-variant:normal;font-weight:normal;font-stretch:normal;font-size:medium;line-height:normal;font-family:sans-serif;font-variant-ligatures:normal;font-variant-position:normal;font-variant-caps:normal;font-variant-numeric:normal;font-variant-alternates:normal;font-variant-east-asian:normal;font-feature-settings:normal;font-variation-settings:normal;text-indent:0;text-align:start;text-decoration:none;text-decoration-line:none;text-decoration-style:solid;text-decoration-color:#000000;letter-spacing:normal;word-spacing:normal;text-transform:none;writing-mode:lr-tb;direction:ltr;text-orientation:mixed;dominant-baseline:auto;baseline-shift:baseline;text-anchor:start;white-space:normal;shape-padding:0;shape-margin:0;inline-size:0;clip-rule:nonzero;display:inline;overflow:visible;visibility:visible;opacity:1;isolation:auto;mix-blend-mode:normal;color-interpolation:sRGB;color-interpolation-filters:linearRGB;solid-color:#000000;solid-opacity:1;vector-effect:none;fill:#000000;fill-opacity:0.698529;fill-rule:evenodd;stroke:none;stroke-width:0.999998;stroke-linecap:square;stroke-linejoin:miter;stroke-miterlimit:1;stroke-dasharray:none;stroke-dashoffset:0;stroke-opacity:1;color-rendering:auto;image-rendering:auto;shape-rendering:auto;text-rendering:auto;enable-background:accumulate;stop-color:#000000;stop-opacity:1"
       d="m 374.80746,21.966252 c -0.90451,0.006 -1.80721,0.0206 -2.70757,0.0441 -4.11594,0.10725 -8.18827,0.39101 -12.21824,0.85548 -32.23976,3.71585 -59.82923,19.46322 -80.76626,40.08769 C 240.92965,100.5692 219.53286,152.652 199.20461,203.3723 l -28.40082,67.82704 c -13.5413,30.97336 -30.98256,63.4253 -47.99541,79.0575 -17.01285,15.6322 -24.811358,19.29617 -40.634474,21.35518 -15.823129,2.05902 -37.304159,-0.86529 -67.240549,-14.8762 l -31.698179,-14.83651 -29.671921,63.39857 31.699291,14.83541 c 38.306489,17.9283 73.601849,25.10194 105.94466,20.89327 32.342822,-4.20868 59.888372,-20.2397 80.890832,-41.06664 42.00493,-41.65388 63.92062,-100.58663 86.15054,-155.76572 22.22992,-55.1791 44.8426,-106.59914 69.99001,-131.37113 12.57371,-12.386 24.17192,-18.633278 39.65773,-20.418118 15.4858,-1.78484 36.77029,1.44573 66.48428,15.922408 l 31.46557,15.32929 30.65749,-62.928938 -31.46447,-15.32819 c -32.16153,-15.66911 -62.19214,-23.63333 -90.23173,-23.43326 z"
       sodipodi:nodetypes="sccsccssccccsssssccccss" />
    <path
       id="path1362"
       style="color:#000000;font-style:normal;font-variant:normal;font-weight:normal;font-stretch:normal;font-size:medium;line-height:normal;font-family:sans-serif;font-variant-ligatures:normal;font-variant-position:normal;font-variant-caps:normal;font-variant-numeric:normal;font-variant-alternates:normal;font-variant-east-asian:normal;font-feature-settings:normal;font-variation-settings:normal;text-indent:0;text-align:start;text-decoration:none;text-decoration-line:none;text-decoration-style:solid;text-decoration-color:#000000;letter-spacing:normal;word-spacing:normal;text-transform:none;writing-mode:lr-tb;direction:ltr;text-orientation:mixed;dominant-baseline:auto;baseline-shift:baseline;text-anchor:start;white-space:normal;shape-padding:0;shape-margin:0;inline-size:0;clip-rule:nonzero;display:inline;overflow:visible;visibility:visible;opacity:1;isolation:auto;mix-blend-mode:normal;color-interpolation:sRGB;color-interpolation-filters:linearRGB;solid-color:#000000;solid-opacity:1;vector-effect:none;fill:#000000;fill-opacity:0.698529;fill-rule:evenodd;stroke:none;stroke-width:0.999998;stroke-linecap:square;stroke-linejoin:miter;stroke-miterlimit:1;stroke-dasharray:none;stroke-dashoffset:0;stroke-opacity:1;color-rendering:auto;image-rendering:auto;shape-rendering:auto;text-rendering:auto;enable-background:accumulate;stop-color:#000000;stop-opacity:1"
       d="m 199.20461,203.3723 c -8.514,-6.63348 -17.71818,-12.95027 -27.76251,-18.7799 -36.73137,-21.31851 -83.676809,-35.00063 -145.046773,-36.42541 -8.76713,-0.20354 -17.8299798,-0.1559 -27.19805892,0.15434 l -34.98012108,1.15755 2.31621,69.96134 34.9801208,-1.15755 c 65.2048592,-2.15934 105.0622922,9.59601 134.7919522,26.8508 12.85988,7.46374 24.07013,16.23316 34.49836,26.06587 z"
       sodipodi:nodetypes="cssccccscc" />
  </g>
</svg>
