<?xml version="1.0" encoding="UTF-8" standalone="no"?>
<svg
   xmlns:dc="http://purl.org/dc/elements/1.1/"
   xmlns:cc="http://creativecommons.org/ns#"
   xmlns:rdf="http://www.w3.org/1999/02/22-rdf-syntax-ns#"
   xmlns:svg="http://www.w3.org/2000/svg"
   xmlns="http://www.w3.org/2000/svg"
   xmlns:sodipodi="http://sodipodi.sourceforge.net/DTD/sodipodi-0.dtd"
   xmlns:inkscape="http://www.inkscape.org/namespaces/inkscape"
   width="210mm"
   height="297mm"
   viewBox="0 0 448 512"
   version="1.1"
   id="svg841"
   inkscape:version="1.0.2 (e86c870879, 2021-01-15, custom)"
   sodipodi:docname="fill3.svg">
  <defs
     id="defs835">
    <inkscape:path-effect
       effect="mirror_symmetry"
       start_point="328.42079,92.00691"
       end_point="328.42079,489.98905"
       center_point="328.42079,290.99798"
       id="path-effect1376"
       is_visible="true"
       lpeversion="1"
       mode="free"
       discard_orig_path="false"
       fuse_paths="true"
       oposite_fuse="false"
       split_items="false" />
    <inkscape:path-effect
       effect="mirror_symmetry"
       start_point="297.63134,97.70866"
       end_point="297.63134,495.6908"
       center_point="297.63134,296.69973"
       id="path-effect1372"
       is_visible="true"
       lpeversion="1"
       mode="free"
       discard_orig_path="false"
       fuse_paths="true"
       oposite_fuse="false"
       split_items="false" />
    <inkscape:path-effect
       effect="mirror_symmetry"
       start_point="328.42079,92.00691"
       end_point="328.42079,489.98905"
       center_point="328.42079,290.99798"
       id="path-effect1368"
       is_visible="true"
       lpeversion="1"
       mode="free"
       discard_orig_path="false"
       fuse_paths="true"
       oposite_fuse="false"
       split_items="false" />
  </defs>
  <sodipodi:namedview
     id="base"
     pagecolor="#ffffff"
     bordercolor="#666666"
     borderopacity="1.0"
     inkscape:pageopacity="0.0"
     inkscape:pageshadow="2"
     inkscape:zoom="0.175"
     inkscape:cx="533.62901"
     inkscape:cy="657.84579"
     inkscape:document-units="mm"
     inkscape:current-layer="layer1"
     inkscape:document-rotation="0"
     showgrid="false"
     inkscape:window-width="1920"
     inkscape:window-height="1003"
     inkscape:window-x="-9"
     inkscape:window-y="-9"
     inkscape:window-maximized="1" />
  <metadata
     id="metadata838">
    <rdf:RDF>
      <cc:Work
         rdf:about="">
        <dc:format>image/svg+xml</dc:format>
        <dc:type
           rdf:resource="http://purl.org/dc/dcmitype/StillImage" />
        <dc:title></dc:title>
      </cc:Work>
    </rdf:RDF>
  </metadata>
  <g
     inkscape:label="Layer 1"
     inkscape:groupmode="layer"
     id="layer1">
    <path
       id="path907"
       style="fill:#444a55;fill-opacity:0.702206;fill-rule:evenodd;stroke:none;stroke-width:9.99997;stroke-linecap:butt;stroke-linejoin:miter;stroke-opacity:1"
       d="m -562.15808,446.35399 c -1.7115,-0.01 -3.448,-0.006 -5.198,0.004 -0.4911,0.003 -0.9861,0.008 -1.4805,0.013 -1.2947,0.012 -2.601,0.03 -3.91695,0.054 -0.55245,0.01 -1.10293,0.019 -1.65916,0.031 -1.79192,0.039 -3.59678,0.085 -5.42836,0.145 l -1.19283,0.04 -0.13119,131.368 14.52009,6.796 c 29.9364,14.011 51.4174,16.936 67.2405,14.877 15.8231,-2.06 23.622,-5.723 40.634,-21.356 17.008,-15.627 34.443,-48.064 47.983,-79.028 -10.362,-9.743 -21.499,-18.438 -34.262,-25.846 -0.903,-0.524 -1.816,-1.042 -2.738,-1.555 -0.189,-0.105 -0.381,-0.208 -0.57,-0.312 -0.72,-0.398 -1.442,-0.793 -2.174,-1.184 -0.296,-0.158 -0.596,-0.314 -0.894,-0.471 -0.965,-0.508 -1.941,-1.011 -2.927,-1.507 -0.986,-0.496 -1.983,-0.986 -2.991,-1.47 -0.995,-0.477 -2.001,-0.948 -3.018,-1.413 -0.619,-0.282 -1.243,-0.562 -1.87,-0.84 -0.024,-0.011 -0.049,-0.021 -0.073,-0.032 -0.346,-0.153 -0.692,-0.306 -1.041,-0.457 -0.658,-0.286 -1.324,-0.568 -1.992,-0.848 -0.402,-0.169 -0.802,-0.339 -1.208,-0.506 -0.655,-0.27 -1.318,-0.534 -1.982,-0.798 -0.004,-0.002 -0.008,-0.004 -0.012,-0.005 -0.395,-0.157 -0.787,-0.316 -1.185,-0.472 -0.805,-0.313 -1.62,-0.62 -2.439,-0.926 -0.032,-0.011 -0.063,-0.023 -0.095,-0.035 -0.233,-0.087 -0.461,-0.177 -0.695,-0.263 -2.2,-0.81 -4.454,-1.59 -6.762,-2.341 -0.006,-0.002 -0.012,-0.003 -0.018,-0.005 -0.373,-0.122 -0.754,-0.239 -1.129,-0.359 -0.7809,-0.248 -1.5628,-0.497 -2.3561,-0.738 h -0.001 c -0.42,-0.128 -0.8465,-0.252 -1.27,-0.378 -0.7657,-0.228 -1.5342,-0.455 -2.3118,-0.676 -0.0168,-0.005 -0.0339,-0.01 -0.0507,-0.015 -0.4098,-0.116 -0.8238,-0.23 -1.237,-0.345 -0.7897,-0.219 -1.5845,-0.436 -2.3867,-0.648 -0.01,-0.003 -0.0199,-0.005 -0.0298,-0.008 -0.4621,-0.122 -0.9271,-0.242 -1.3935,-0.362 -0.8082,-0.208 -1.6231,-0.412 -2.444,-0.613 -0.4472,-0.11 -0.8951,-0.218 -1.3461,-0.325 -0.8137,-0.194 -1.6365,-0.384 -2.4628,-0.57 -0.0234,-0.005 -0.0471,-0.011 -0.0706,-0.016 -0.4909,-0.111 -0.9807,-0.222 -1.4761,-0.331 -0.8051,-0.175 -1.6203,-0.345 -2.4375,-0.514 -0.0382,-0.008 -0.0765,-0.017 -0.1147,-0.025 -0.4514,-0.093 -0.8986,-0.187 -1.3537,-0.279 -1.0639,-0.213 -2.1423,-0.418 -3.2269,-0.62 -0.291,-0.054 -0.5773,-0.111 -0.8698,-0.165 -2.7968,-0.509 -5.6614,-0.982 -8.6,-1.414 -0.2023,-0.03 -0.41,-0.057 -0.613,-0.086 -1.2453,-0.18 -2.5009,-0.354 -3.7725,-0.52 -0.403,-0.053 -0.8136,-0.101 -1.2193,-0.152 -1.0962,-0.138 -2.198,-0.273 -3.3139,-0.401 -0.5001,-0.057 -1.0073,-0.11 -1.5114,-0.165 -1.0144,-0.11 -2.034,-0.217 -3.0648,-0.319 -0.576,-0.056 -1.1573,-0.11 -1.7385,-0.164 -1.0333,-0.095 -2.0734,-0.188 -3.1232,-0.274 -0.5552,-0.046 -1.1135,-0.089 -1.6735,-0.133 -1.0684,-0.082 -2.1455,-0.16 -3.2312,-0.233 -0.578,-0.039 -1.1567,-0.078 -1.7396,-0.114 -1.0359,-0.064 -2.0837,-0.122 -3.1353,-0.177 -0.6409,-0.034 -1.2793,-0.07 -1.926,-0.101 h -0.006 c -1.1015,-0.052 -2.2171,-0.096 -3.336,-0.139 -0.5976,-0.022 -1.1898,-0.048 -1.7925,-0.068 -1.4427,-0.048 -2.9028,-0.086 -4.3744,-0.118 -0.2574,-0.006 -0.5091,-0.015 -0.7673,-0.02 -1.8177,-0.036 -3.6564,-0.061 -5.5188,-0.073 z m 202.0496,111.052 c -13.272,26.013 -28.942,50.365 -49.372,70.623 -20.478,20.307 -47.179,36.049 -78.4786,40.724 h 354.7026 l 0.059,-1.154 c -39.343,0.805 -72.823,-4.307 -101.344,-13.766 -1.498,-0.497 -2.982,-1.005 -4.453,-1.526 -0.138,-0.049 -0.274,-0.099 -0.412,-0.149 -1.326,-0.472 -2.645,-0.952 -3.95,-1.443 -0.198,-0.074 -0.392,-0.152 -0.59,-0.227 -1.244,-0.472 -2.483,-0.95 -3.707,-1.44 -0.077,-0.03 -0.153,-0.062 -0.229,-0.093 -0.151,-0.062 -0.302,-0.124 -0.454,-0.186 -1.194,-0.482 -2.383,-0.969 -3.559,-1.467 -0.213,-0.09 -0.422,-0.184 -0.634,-0.274 -1.165,-0.498 -2.325,-0.999 -3.472,-1.512 -0.339,-0.152 -0.673,-0.309 -1.011,-0.463 -1.313,-0.596 -2.614,-1.201 -3.903,-1.817 -1.068,-0.51 -2.132,-1.021 -3.183,-1.544 -0.3,-0.149 -0.593,-0.304 -0.892,-0.454 -1.006,-0.507 -2.011,-1.016 -3.003,-1.535 -1.294,-0.677 -2.577,-1.365 -3.845,-2.063 -0.171,-0.094 -0.339,-0.19 -0.508,-0.285 -0.232,-0.131 -0.464,-0.262 -0.696,-0.392 -4.649,-2.596 -9.135,-5.319 -13.449,-8.174 -31.572,-20.893 -53.799,-46.853 -73.536,-71.262 -0.027,-0.042 -0.054,-0.08 -0.081,-0.121 z m -221.13376,97.353 -0.0143,13.994 h 50.91789 c -16.3084,-2.228 -33.2743,-6.913 -50.90356,-13.994 z" />
    <path
       id="path959"
       style="color:#000000;font-style:normal;font-variant:normal;font-weight:normal;font-stretch:normal;font-size:medium;line-height:normal;font-family:sans-serif;font-variant-ligatures:normal;font-variant-position:normal;font-variant-caps:normal;font-variant-numeric:normal;font-variant-alternates:normal;font-variant-east-asian:normal;font-feature-settings:normal;font-variation-settings:normal;text-indent:0;text-align:start;text-decoration:none;text-decoration-line:none;text-decoration-style:solid;text-decoration-color:#000000;letter-spacing:normal;word-spacing:normal;text-transform:none;writing-mode:lr-tb;direction:ltr;text-orientation:mixed;dominant-baseline:auto;baseline-shift:baseline;text-anchor:start;white-space:normal;shape-padding:0;shape-margin:0;inline-size:0;clip-rule:nonzero;display:inline;overflow:visible;visibility:visible;opacity:1;isolation:auto;mix-blend-mode:normal;color-interpolation:sRGB;color-interpolation-filters:linearRGB;solid-color:#000000;solid-opacity:1;vector-effect:none;fill:#000000;fill-opacity:0.7;fill-rule:evenodd;stroke:none;stroke-width:0.999998;stroke-linecap:square;stroke-linejoin:miter;stroke-miterlimit:1;stroke-dasharray:none;stroke-dashoffset:0;stroke-opacity:1;color-rendering:auto;image-rendering:auto;shape-rendering:auto;text-rendering:auto;enable-background:accumulate;stop-color:#000000;stop-opacity:1"
       d="m -360.02731,557.527 c 19.73729,24.40961 41.96474,50.36869 73.5369,71.26134 37.86901,25.05953 88.3668,40.60741 156.0625,38.75586 l 34.986332,-0.95704 -1.91406,-69.97265 -34.986332,0.95703 c -56.6948,1.55067 -89.55965,-9.97944 -115.51953,-27.1582 -25.95988,-17.17877 -45.83225,-42.22955 -69.29101,-71.25391 -3.61725,-4.47544 -7.32636,-9.04207 -11.1669,-13.65468" />
    <path
       id="path1454"
       style="color:#000000;font-style:normal;font-variant:normal;font-weight:normal;font-stretch:normal;font-size:medium;line-height:normal;font-family:sans-serif;font-variant-ligatures:normal;font-variant-position:normal;font-variant-caps:normal;font-variant-numeric:normal;font-variant-alternates:normal;font-variant-east-asian:normal;font-feature-settings:normal;font-variation-settings:normal;text-indent:0;text-align:start;text-decoration:none;text-decoration-line:none;text-decoration-style:solid;text-decoration-color:#000000;letter-spacing:normal;word-spacing:normal;text-transform:none;writing-mode:lr-tb;direction:ltr;text-orientation:mixed;dominant-baseline:auto;baseline-shift:baseline;text-anchor:start;white-space:normal;shape-padding:0;shape-margin:0;inline-size:0;clip-rule:nonzero;display:inline;overflow:visible;visibility:visible;opacity:1;isolation:auto;mix-blend-mode:normal;color-interpolation:sRGB;color-interpolation-filters:linearRGB;solid-color:#000000;solid-opacity:1;vector-effect:none;fill:#000000;fill-opacity:1;fill-rule:evenodd;stroke:none;stroke-width:0.999998;stroke-linecap:square;stroke-linejoin:miter;stroke-miterlimit:4;stroke-dasharray:none;stroke-dashoffset:0;stroke-opacity:1;color-rendering:auto;image-rendering:auto;shape-rendering:auto;text-rendering:auto;enable-background:accumulate;stop-color:#000000;stop-opacity:1"
       d="m -392.42464,-57.95839 c -18.13901,0 -33.97682,8.12591 -45.06405,17.192406 -11.08723,9.06649 -19.1319,19.324624 -26.69205,29.989413 -15.12031,21.329581 -28.20207,45.11072 -42.98818,65.926449 -14.78608,20.815734 -30.72562,37.804439 -47.78485,47.070472 -17.05922,9.26604 -35.33216,13.27052 -65.98818,5.13071 l -9.62311,-2.55543 v 77.3333 c 42.41458,9.02028 81.15307,2.42843 111.40832,-14.00528 32.52964,-17.66908 55.16153,-44.2432 73.13083,-69.540214 17.9693,-25.297011 31.82733,-50.180092 43.03117,-65.984874 3.40838,-4.808062 6.32756,-8.297486 8.83377,-11.052968 1.82363,2.699946 3.95501,6.118036 6.17582,10.250395 9.20449,17.127209 19.91536,44.098017 34.51159,71.204881 14.59622,27.10688 33.48847,56.0331 65.49429,74.18807 28.48433,16.15745 66.06131,19.27143 105.41441,6.41284 v -80.75083 l -14.66232,6.22873 c -29.65686,12.59854 -41.95178,9.56526 -53.74791,2.87403 -11.7961,-6.69123 -24.72904,-22.72064 -36.46289,-44.511729 -11.73382,-21.791088 -21.85964,-47.661072 -34.48292,-71.1497665 -6.31164,-11.7443445 -13.14251,-23.1498645 -23.71218,-33.6803535 -10.56965,-10.53049 -27.50334,-20.570251 -46.79156,-20.570251 z" />
    <path
       id="path1406-2"
       style="fill:#434a55;fill-opacity:0.698529;fill-rule:evenodd;stroke:none;stroke-width:9.99998;stroke-linecap:butt;stroke-linejoin:miter;stroke-opacity:1"
       d="m -206.28551,319.95189 c -0.82335,0.003 -1.62854,0.0235 -2.42424,0.0529 -0.40336,0.0149 -0.80419,0.0326 -1.20055,0.054 -0.22345,0.0121 -0.44573,0.0245 -0.66697,0.0386 -0.002,1.2e-4 -0.004,-1.1e-4 -0.006,0 -0.59183,0.0377 -1.17775,0.0816 -1.75397,0.1334 -0.003,2.3e-4 -0.005,8.7e-4 -0.008,0.001 -0.55157,0.0496 -1.09741,0.10341 -1.6349,0.16536 -15.48581,1.78484 -27.08403,8.03211 -39.65774,20.41811 -25.14741,24.77199 -47.76008,76.19203 -69.99,131.37113 -22.22992,55.1791 -44.14561,114.11184 -86.15054,155.76572 -1.08119,1.07216 -2.18394,2.12812 -3.29957,3.1739 -0.19643,0.18532 -0.39165,0.37175 -0.58981,0.55562 -0.42306,0.39262 -0.852,0.77995 -1.27991,1.16858 -0.12406,0.11266 -0.24797,0.2254 -0.37153,0.33845 -0.11913,0.109 -0.23789,0.21832 -0.35828,0.32631 -0.37735,0.33848 -0.75999,0.67233 -1.14102,1.00763 -0.31213,0.27465 -0.62247,0.55104 -0.93706,0.82351 -0.39027,0.33803 -0.78557,0.6719 -1.17961,1.00652 -0.29121,0.24727 -0.58096,0.49547 -0.87423,0.74084 -0.42664,0.35701 -0.85776,0.70982 -1.28874,1.06274 -0.27579,0.2258 -0.55036,0.45279 -0.82792,0.67689 -0.39703,0.32061 -0.79772,0.63765 -1.19834,0.9547 -0.70638,0.55903 -1.41794,1.11259 -2.13541,1.66026 -0.17089,0.13045 -0.34259,0.26007 -0.51373,0.39027 -0.17072,0.12988 -0.34088,0.26034 -0.51263,0.38915 -0.43769,0.32833 -0.87899,0.65277 -1.32072,0.97676 -0.28982,0.21253 -0.57936,0.42546 -0.87092,0.6361 -0.46145,0.33345 -0.9266,0.66246 -1.39236,0.99108 -0.27806,0.19614 -0.55607,0.39211 -0.83565,0.58649 -0.47541,0.33063 -0.95334,0.65789 -1.43315,0.98337 -0.16335,0.1108 -0.32694,0.22141 -0.49059,0.33184 -0.12115,0.0818 -0.24222,0.1635 -0.3638,0.24473 -0.49617,0.3316 -0.99521,0.65958 -1.496,0.98558 -0.25521,0.16609 -0.51089,0.33148 -0.76729,0.49609 -0.60115,0.38606 -1.20582,0.76762 -1.8135,1.14543 -0.17225,0.10667 -0.34444,0.21341 -0.51704,0.3197 -0.53871,0.33182 -1.07902,0.66147 -1.62278,0.98668 -0.24372,0.14572 -0.48837,0.28997 -0.73311,0.43436 -0.61355,0.36205 -1.23002,0.7203 -1.84988,1.07376 -0.95691,0.54566 -1.92204,1.07941 -2.89388,1.60404 -0.63166,0.34099 -1.26489,0.67904 -1.9028,1.01093 -0.0723,0.0376 -0.14464,0.0752 -0.21717,0.11245 -0.0746,0.0383 -0.1493,0.0762 -0.2238,0.11465 -0.75217,0.38795 -1.50807,0.77041 -2.2688,1.14542 -0.0183,0.009 -0.0368,0.0175 -0.0551,0.0265 -11.50569,5.66564 -23.98562,9.83257 -37.31396,11.99334 h 352.89021 l 1.44088,-324.72201 -15.15842,-7.38518 c -3.1e-4,-1.4e-4 -8e-4,1.5e-4 -0.001,0 -1.43258,-0.69794 -2.83964,-1.36226 -4.23333,-2.00863 -0.20754,-0.0962 -0.41618,-0.1948 -0.62287,-0.28994 -0.017,-0.008 -0.0337,-0.0142 -0.0507,-0.0221 -1.317,-0.60577 -2.61562,-1.18882 -3.89819,-1.74955 -0.26089,-0.11407 -0.51993,-0.22512 -0.77942,-0.33735 -1.29186,-0.55873 -2.57047,-1.10215 -3.82763,-1.61616 -0.0667,-0.0273 -0.13186,-0.0522 -0.19845,-0.0794 -0.002,-7.7e-4 -0.004,-0.001 -0.005,-0.002 -1.2717,-0.5183 -2.52264,-1.01012 -3.7593,-1.48387 -0.17481,-0.067 -0.35173,-0.13566 -0.52585,-0.20175 -1.20899,-0.45892 -2.39936,-0.89558 -3.57518,-1.313 -0.21389,-0.0759 -0.42662,-0.15031 -0.63942,-0.22489 -0.003,-10e-4 -0.007,-0.002 -0.01,-0.003 -1.19912,-0.42017 -2.3849,-0.82356 -3.54983,-1.20165 -0.0986,-0.032 -0.19492,-0.062 -0.29324,-0.0937 -0.0179,-0.006 -0.035,-0.0108 -0.0529,-0.0165 -1.08205,-0.34837 -2.14857,-0.67692 -3.20145,-0.98998 -0.1778,-0.0529 -0.35771,-0.10908 -0.53468,-0.16096 -1.09664,-0.32145 -2.17476,-0.6209 -3.24005,-0.90509 -0.19595,-0.0523 -0.39159,-0.1033 -0.58649,-0.15434 -1.07029,-0.28027 -2.12725,-0.54563 -3.16618,-0.78934 -0.14995,-0.0352 -0.29719,-0.067 -0.44649,-0.10142 -0.98383,-0.22688 -1.95441,-0.43882 -2.91041,-0.6339 -0.10971,-0.0224 -0.22139,-0.0475 -0.33073,-0.0695 -3.6e-4,-7e-5 -7.4e-4,7e-5 -0.001,0 -1.01305,-0.2036 -2.0076,-0.38547 -2.98978,-0.55452 -0.17153,-0.0295 -0.34314,-0.0597 -0.51374,-0.0882 -7.3e-4,-1.3e-4 -10e-4,1.2e-4 -0.002,0 -0.96729,-0.16154 -1.92096,-0.30852 -2.85861,-0.43767 -0.13645,-0.0188 -0.27096,-0.0348 -0.40679,-0.0529 -1.92695,-0.25713 -3.79153,-0.44735 -5.59594,-0.57547 -0.16077,-0.0114 -0.32195,-0.0237 -0.48176,-0.0342 -0.85586,-0.0559 -1.69903,-0.0982 -2.52787,-0.12678 -1.00993,-0.0349 -2.00261,-0.0533 -2.97326,-0.0496 z m -375.49224,334.63507 v 13.83991 h 49.38228 c -5.88127,-0.86452 -11.84747,-2.04746 -17.89907,-3.54431 -0.0254,-0.006 -0.0507,-0.0125 -0.0761,-0.0187 -0.96448,-0.23896 -1.93168,-0.48701 -2.9005,-0.74194 -0.14187,-0.0373 -0.28357,-0.0737 -0.42554,-0.11134 -1.92388,-0.51053 -3.85672,-1.05282 -5.79768,-1.62609 -0.16785,-0.0496 -0.33583,-0.0999 -0.50381,-0.14993 -0.88616,-0.264 -1.77376,-0.53326 -2.66347,-0.81029 -0.0598,-0.0186 -0.11986,-0.0372 -0.1797,-0.0562 -1.00768,-0.31466 -2.01723,-0.6366 -3.02948,-0.96793 -0.10311,-0.0337 -0.20662,-0.0686 -0.30978,-0.10253 -5.14035,-1.69036 -10.33903,-3.59289 -15.59719,-5.71059 z m 93.39902,14.1067 c -0.76129,0.11296 -1.52304,0.22545 -2.28975,0.32522 0.76661,-0.0998 1.52931,-0.21021 2.28975,-0.32522 z m -2.28975,0.32522 c -0.93118,0.12117 -1.8652,0.23062 -2.80128,0.33294 0.93617,-0.10227 1.87003,-0.21176 2.80128,-0.33294 z m -39.26416,-0.25025 c 0.13452,0.0178 0.26905,0.0365 0.40349,0.054 -0.13445,-0.0175 -0.26895,-0.0362 -0.40349,-0.054 z m 2.72631,0.33955 c 0.17364,0.0202 0.34685,0.0399 0.52034,0.0595 -0.17345,-0.0196 -0.34674,-0.0394 -0.52034,-0.0595 z m 32.77857,0.34175 c -0.62302,0.0637 -1.24676,0.12429 -1.87193,0.17969 0.62506,-0.0553 1.24902,-0.11604 1.87193,-0.17969 z m -2.95673,0.2712 c -0.59788,0.0483 -1.19711,0.0915 -1.79696,0.13229 0.59995,-0.0407 1.199,-0.0841 1.79696,-0.13229 z m -2.92585,0.20615 c -0.58249,0.0349 -1.16631,0.0637 -1.75065,0.0915 0.58424,-0.0277 1.16827,-0.0567 1.75065,-0.0915 z m -16.69189,0.043 c 0.27896,0.0147 0.55817,0.0309 0.83674,0.0441 -0.2785,-0.0131 -0.55785,-0.0295 -0.83674,-0.0441 z m 13.79802,0.10252 c -0.76117,0.0302 -1.52435,0.0523 -2.28865,0.0706 0.76445,-0.0181 1.52732,-0.0405 2.28865,-0.0706 z m -11.19629,0.0132 c 0.39317,0.0141 0.78612,0.0264 1.1785,0.0375 -0.39242,-0.011 -0.78528,-0.0235 -1.1785,-0.0375 z m 2.80017,0.0761 c 0.43872,0.008 0.87639,0.0105 1.3141,0.0143 -0.43762,-0.004 -0.87547,-0.007 -1.3141,-0.0143 z m 4.38547,0.009 c -0.5027,0.006 -1.00518,0.0134 -1.50923,0.0143 0.50401,-8.5e-4 1.00657,-0.008 1.50923,-0.0143 z" />
    <path
       id="path1260"
       style="color:#000000;font-style:normal;font-variant:normal;font-weight:normal;font-stretch:normal;font-size:medium;line-height:normal;font-family:sans-serif;font-variant-ligatures:normal;font-variant-position:normal;font-variant-caps:normal;font-variant-numeric:normal;font-variant-alternates:normal;font-variant-east-asian:normal;font-feature-settings:normal;font-variation-settings:normal;text-indent:0;text-align:start;text-decoration:none;text-decoration-line:none;text-decoration-style:solid;text-decoration-color:#000000;letter-spacing:normal;word-spacing:normal;text-transform:none;writing-mode:lr-tb;direction:ltr;text-orientation:mixed;dominant-baseline:auto;baseline-shift:baseline;text-anchor:start;white-space:normal;shape-padding:0;shape-margin:0;inline-size:0;clip-rule:nonzero;display:inline;overflow:visible;visibility:visible;opacity:1;isolation:auto;mix-blend-mode:normal;color-interpolation:sRGB;color-interpolation-filters:linearRGB;solid-color:#000000;solid-opacity:1;vector-effect:none;fill:#000000;fill-opacity:0.698529;fill-rule:evenodd;stroke:none;stroke-width:0.999998;stroke-linecap:square;stroke-linejoin:miter;stroke-miterlimit:1;stroke-dasharray:none;stroke-dashoffset:0;stroke-opacity:1;color-rendering:auto;image-rendering:auto;shape-rendering:auto;text-rendering:auto;enable-background:accumulate;stop-color:#000000;stop-opacity:1"
       d="m -206.77102,250.03624 c -0.90451,0.006 -1.80721,0.0206 -2.70757,0.0441 -4.11594,0.10725 -8.18827,0.39101 -12.21824,0.85548 -32.23976,3.71585 -59.82923,19.46322 -80.76626,40.08769 -38.18574,37.61568 -59.58253,89.69848 -79.91078,140.41878 l -28.40082,67.82704 c -13.5413,30.97336 -30.98256,63.4253 -47.99541,79.0575 -17.01285,15.6322 -24.81136,19.29617 -40.63447,21.35518 -15.82313,2.05902 -37.30416,-0.86529 -67.24055,-14.8762 l -31.69818,-14.83651 -29.67192,63.39857 31.69929,14.83541 c 38.30649,17.9283 73.60185,25.10194 105.94466,20.89327 32.34282,-4.20868 59.88837,-20.2397 80.89083,-41.06664 42.00493,-41.65388 63.92062,-100.58663 86.15054,-155.76572 22.22992,-55.1791 44.8426,-106.59914 69.99001,-131.37113 12.57371,-12.386 24.17192,-18.63328 39.65773,-20.41812 15.4858,-1.78484 36.77029,1.44573 66.48428,15.92241 l 31.46557,15.32929 30.657492,-62.92894 -31.464472,-15.32819 c -32.16153,-15.66911 -62.19214,-23.63333 -90.23173,-23.43326 z"
       sodipodi:nodetypes="sccsccssccccsssssccccss" />
    <path
       id="path1362"
       style="color:#000000;font-style:normal;font-variant:normal;font-weight:normal;font-stretch:normal;font-size:medium;line-height:normal;font-family:sans-serif;font-variant-ligatures:normal;font-variant-position:normal;font-variant-caps:normal;font-variant-numeric:normal;font-variant-alternates:normal;font-variant-east-asian:normal;font-feature-settings:normal;font-variation-settings:normal;text-indent:0;text-align:start;text-decoration:none;text-decoration-line:none;text-decoration-style:solid;text-decoration-color:#000000;letter-spacing:normal;word-spacing:normal;text-transform:none;writing-mode:lr-tb;direction:ltr;text-orientation:mixed;dominant-baseline:auto;baseline-shift:baseline;text-anchor:start;white-space:normal;shape-padding:0;shape-margin:0;inline-size:0;clip-rule:nonzero;display:inline;overflow:visible;visibility:visible;opacity:1;isolation:auto;mix-blend-mode:normal;color-interpolation:sRGB;color-interpolation-filters:linearRGB;solid-color:#000000;solid-opacity:1;vector-effect:none;fill:#000000;fill-opacity:0.698529;fill-rule:evenodd;stroke:none;stroke-width:0.999998;stroke-linecap:square;stroke-linejoin:miter;stroke-miterlimit:1;stroke-dasharray:none;stroke-dashoffset:0;stroke-opacity:1;color-rendering:auto;image-rendering:auto;shape-rendering:auto;text-rendering:auto;enable-background:accumulate;stop-color:#000000;stop-opacity:1"
       d="m -382.37387,431.44229 c -8.514,-6.63348 -17.71818,-12.95027 -27.76251,-18.7799 -36.73137,-21.31851 -83.67681,-35.00063 -145.04677,-36.42541 -8.76713,-0.20354 -17.82998,-0.1559 -27.19806,0.15434 l -34.98012,1.15755 2.31621,69.96134 34.98012,-1.15755 c 65.20486,-2.15934 105.06229,9.59601 134.79195,26.8508 12.85988,7.46374 24.07013,16.23316 34.49836,26.06587 z"
       sodipodi:nodetypes="cssccccscc" />
    <path
       style="color:#000000;font-style:normal;font-variant:normal;font-weight:normal;font-stretch:normal;font-size:medium;line-height:normal;font-family:sans-serif;font-variant-ligatures:normal;font-variant-position:normal;font-variant-caps:normal;font-variant-numeric:normal;font-variant-alternates:normal;font-variant-east-asian:normal;font-feature-settings:normal;font-variation-settings:normal;text-indent:0;text-align:start;text-decoration:none;text-decoration-line:none;text-decoration-style:solid;text-decoration-color:#000000;letter-spacing:normal;word-spacing:normal;text-transform:none;writing-mode:lr-tb;direction:ltr;text-orientation:mixed;dominant-baseline:auto;baseline-shift:baseline;text-anchor:start;white-space:normal;shape-padding:0;shape-margin:0;inline-size:0;clip-rule:nonzero;display:inline;overflow:visible;visibility:visible;opacity:1;isolation:auto;mix-blend-mode:normal;color-interpolation:sRGB;color-interpolation-filters:linearRGB;solid-color:#000000;solid-opacity:1;vector-effect:none;fill:#007be5;fill-opacity:1;fill-rule:evenodd;stroke:none;stroke-linecap:butt;stroke-linejoin:miter;stroke-miterlimit:4;stroke-dasharray:none;stroke-dashoffset:0;stroke-opacity:1;color-rendering:auto;image-rendering:auto;shape-rendering:auto;text-rendering:auto;enable-background:accumulate;stop-color:#000000;stop-opacity:1"
       d="M 114.2623,194.0379 C 94.34699,193.45309 74.36818,200.99809 60.59824,212.99298 46.82829,224.98786 38.46048,239.74281 32.108,254.81329 19.40305,284.95427 13.93019,318.7042 7.50449,351.0047 c -6.42571,32.3005 -13.79341,62.87797 -23.39454,81.51562 -9.60112,18.63765 -14.74922,28.23296 -31.0332,28.89056 l 2.84766,70.49805 c 42.5247,-1.71729 74.6658,-35.54841 90.9082,-67.07806 16.2424,-31.52964 23.27286,-66.8928 29.87109,-100.06055 6.59824,-33.16774 12.77497,-64.41403 20.41993,-82.55078 3.82247,-9.06837 7.80456,-14.27119 9.81836,-16.02539 2.01379,-1.7542 1.25458,-1.74818 5.25,-1.63086 3.83307,0.11256 3.69492,0.17931 6.27148,2.61328 2.57656,2.43397 6.83311,8.51708 10.82422,18.25391 7.98221,19.47365 14.32787,51.56615 21.46484,85.39063 7.13698,33.82447 14.97865,69.71783 32.80078,101.40625 17.82214,31.68841 52.05428,59.64797 95.86328,60.45507 126.30788,2.32701 123.88738,0.5042 260.94727,1.58008 l 0.55273,-70.55273 c -137.67682,-1.08072 -108.74966,3.1616 -234.39604,0.84678 -19.17956,-0.35335 -40.92209,-6.89648 -55.02035,-20.46631 -22.84791,-21.99153 -29.6781,-55.27368 -36.54866,-87.83555 -6.87056,-32.56187 -7.79774,-66.88634 -20.38065,-97.58398 -6.29145,-15.34883 -14.42984,-30.28879 -27.65625,-42.78321 -13.22641,-12.49442 -32.57469,-21.26004 -52.65234,-21.84961 z"
       id="path1370"
       sodipodi:nodetypes="sssssccssssssssssccsassss" />
    <path
       style="fill:none;fill-rule:evenodd;stroke:#000000;stroke-width:70.5556;stroke-linecap:butt;stroke-linejoin:miter;stroke-miterlimit:4;stroke-dasharray:none;stroke-opacity:1"
       d="M 11.4035,497.9715 C 356.25413,522.98276 200.66235,109.11216 328.42079,107.97181 456.17923,109.11216 300.58745,522.98276 645.43808,497.9715"
       id="path1374"
       sodipodi:nodetypes="cc"
       inkscape:path-effect="#path-effect1376"
       inkscape:original-d="M 11.4035,497.9715 C 356.25413,522.98276 200.66235,109.11216 328.42079,107.97181"
       transform="translate(656.95619,-148.24549)" />
    <path
       style="fill:none;fill-rule:evenodd;stroke:#000000;stroke-width:70.5556;stroke-linecap:butt;stroke-linejoin:miter;stroke-miterlimit:4;stroke-dasharray:none;stroke-opacity:1"
       d="m 622.7457,331.48042 c 117.61737,-4.74978 63.08299,-265.652114 158.72588,-262.843594 95.64289,2.80852 40.86303,265.789184 166.84015,268.110094 125.97717,2.32091 123.20547,0.49729 260.57387,1.57559"
       id="path1378"
       sodipodi:nodetypes="czzc" />
    <path
       id="rect1388"
       style="fill:#5f88c8;fill-opacity:0.698529;stroke:none;stroke-width:70.5556;stroke-linecap:square;stroke-linejoin:round;stroke-miterlimit:4;stroke-dasharray:none;stroke-opacity:0.698529"
       d="m 301.05283,533.06059 c -6.78859,-0.11238 -13.95612,-0.23661 -21.6363,-0.37812 -43.809,-0.8071 -78.04081,-28.76667 -95.86295,-60.45508 -17.82213,-31.68842 -25.66363,-67.5815 -32.80062,-101.40597 -7.13697,-33.82448 -13.48321,-65.91731 -21.46542,-85.39096 -3.99111,-9.73683 -8.24711,-15.82007 -10.82366,-18.25404 -2.57656,-2.43397 -2.43866,-2.5002 -6.27173,-2.61276 -3.99542,-0.11732 -3.23599,-0.12371 -5.24978,1.63049 -2.01379,1.7542 -5.99577,6.95656 -9.818242,16.02493 -7.644959,18.13675 -13.822081,49.38336 -20.420318,82.5511 -6.598231,33.16775 -13.629475,68.53173 -29.871876,100.06137 -16.2424,31.52965 -48.3828236,65.36011 -90.907524,67.07738 z"
       sodipodi:nodetypes="csssssssssscc" />
    <path
       style="color:#000000;font-style:normal;font-variant:normal;font-weight:normal;font-stretch:normal;font-size:medium;line-height:normal;font-family:sans-serif;font-variant-ligatures:normal;font-variant-position:normal;font-variant-caps:normal;font-variant-numeric:normal;font-variant-alternates:normal;font-variant-east-asian:normal;font-feature-settings:normal;font-variation-settings:normal;text-indent:0;text-align:start;text-decoration:none;text-decoration-line:none;text-decoration-style:solid;text-decoration-color:#000000;letter-spacing:normal;word-spacing:normal;text-transform:none;writing-mode:lr-tb;direction:ltr;text-orientation:mixed;dominant-baseline:auto;baseline-shift:baseline;text-anchor:start;white-space:normal;shape-padding:0;shape-margin:0;inline-size:0;clip-rule:nonzero;display:inline;overflow:visible;visibility:visible;isolation:auto;mix-blend-mode:normal;color-interpolation:sRGB;color-interpolation-filters:linearRGB;solid-color:#000000;solid-opacity:1;vector-effect:none;fill:#ee0010;fill-opacity:1;fill-rule:evenodd;stroke:none;stroke-linecap:butt;stroke-linejoin:miter;stroke-miterlimit:4;stroke-dasharray:none;stroke-dashoffset:0;stroke-opacity:1;color-rendering:auto;image-rendering:auto;shape-rendering:auto;text-rendering:auto;enable-background:accumulate;stop-color:#000000;stop-opacity:1;opacity:1"
       d="M 328.41992 72.693359 L 328.10547 72.695312 C 302.58138 72.923136 278.00179 86.544878 264.17578 104.73828 C 250.34977 122.93168 244.00124 143.45614 239.08398 165.08789 C 229.24946 208.3514 226.20794 258.65734 216.73438 305.83398 C 207.26081 353.01063 191.82849 394.95615 163.72266 422.58984 C 135.61683 450.22354 93.357534 468.54404 13.955078 462.78516 L 8.8515625 533.15625 C 101.87442 539.90299 169.4851 515.87061 213.1875 472.90234 C 256.8899 429.93408 275.20357 373.03175 285.9082 319.72461 C 296.61283 266.41747 300.18215 214.60291 307.88281 180.72656 C 311.73314 163.78839 316.88371 151.98845 320.34961 147.42773 C 323.73831 142.96861 322.48762 143.28902 328.42188 143.25195 C 334.35323 143.28892 333.10397 142.96924 336.49219 147.42773 C 339.95809 151.98845 345.1067 163.78839 348.95703 180.72656 C 356.65769 214.60291 360.22701 266.41747 370.93164 319.72461 C 381.63627 373.03175 399.94994 429.93408 443.65234 472.90234 C 487.35475 515.87061 554.96738 539.90299 647.99023 533.15625 L 642.88672 462.78516 C 563.48426 468.54404 521.22497 450.22354 493.11914 422.58984 C 465.01331 394.95615 449.58098 353.01063 440.10742 305.83398 C 430.63386 258.65734 427.59233 208.3514 417.75781 165.08789 C 412.84055 143.45614 406.49203 122.93168 392.66602 104.73828 C 378.84 86.544878 354.26042 72.923136 328.73633 72.695312 L 328.41992 72.693359 z "
       id="path1364"
       transform="translate(-11.288889)" />
    <path
       id="rect1401"
       style="fill:#c94f4f;fill-opacity:0.69852901;stroke:none;stroke-width:125;stroke-linecap:square;stroke-linejoin:round;stroke-miterlimit:4;stroke-dasharray:none;stroke-opacity:0.698529"
       d="m 561.84961,361.50977 c -2.62836,0.0164 -4.46169,-0.007 -5.82617,0.0723 -1.0234,0.0596 -1.78327,0.17708 -2.41797,0.41211 -0.4231,0.15671 -0.78994,0.36541 -1.14258,0.64453 -0.17632,0.13956 -0.34939,0.29778 -0.52344,0.47461 -1.04407,1.06102 -2.13996,2.83332 -4.39062,5.79492 -2.30264,3.03001 -5.02547,7.86188 -7.88867,14.30274 -2.5e-4,5.6e-4 2.5e-4,0.001 0,0.002 -1.90859,4.29355 -3.88091,9.3011 -5.83204,14.96484 -1.95136,5.66444 -3.88225,11.98565 -5.71093,18.9043 -0.45719,1.72964 -0.90851,3.49533 -1.35157,5.29883 -0.4432,1.80411 -0.87819,3.64335 -1.30468,5.51953 -0.42634,1.87554 -0.84516,3.78203 -1.25782,5.71875 -0.41279,1.93733 -0.81843,3.90362 -1.21874,5.90039 -0.40018,1.99613 -0.79467,4.02047 -1.1836,6.07422 -1.2e-4,6.4e-4 1.2e-4,0.001 0,0.002 -1.16681,6.16124 -2.28555,12.57676 -3.37305,19.22461 -0.72499,4.43191 -1.43674,8.96726 -2.13867,13.59766 -0.70188,4.63043 -1.39347,9.35522 -2.08203,14.16992 -0.68869,4.81528 -1.37348,9.71776 -2.05859,14.70313 -1.36995,9.96947 -2.74214,20.26385 -4.15625,30.82812 -9e-5,6.6e-4 9e-5,0.001 0,0.002 -0.70698,5.28152 -1.42557,10.63022 -2.15821,16.03907 -0.73285,5.41008 -1.47977,10.8791 -2.24804,16.40234 -3.84065,27.61311 -8.18555,56.55153 -13.64258,85.92578 -1.09141,5.87485 -2.2268,11.76731 -3.41211,17.66992 -0.56494,2.8133 -1.14616,5.63327 -1.73633,8.45703 -0.1294,0.61965 -0.26193,1.24123 -0.39258,1.86133 -0.40832,1.93631 -0.82127,3.87405 -1.24218,5.81446 -0.29531,1.36304 -0.59676,2.72695 -0.89844,4.09179 -0.27293,1.23309 -0.54787,2.46676 -0.82617,3.70117 -0.3445,1.53024 -0.69198,3.05976 -1.04493,4.5918 -0.23237,1.00724 -0.46895,2.01551 -0.70507,3.02344 -2.12606,9.08842 -4.40842,18.20161 -6.86914,27.3164 -0.032,0.11851 -0.0636,0.23697 -0.0957,0.35547 -20.53563,75.92089 -53.63285,151.80284 -115.02539,212.16407 -59.97011,58.96274 -145.35963,97.79004 -257.39062,106.75004 H 1023.3926 C 911.36065,1043.3252 825.96817,1004.4979 765.99805,945.53516 704.60542,885.17384 671.50633,809.29208 650.9707,733.37109 c -0.012,-0.0442 -0.0232,-0.0886 -0.0351,-0.13281 -2.54301,-9.40831 -4.89513,-18.81555 -7.08203,-28.19531 -0.15947,-0.68298 -0.32077,-1.36617 -0.47852,-2.04883 -0.4024,-1.74391 -0.798,-3.485 -1.18945,-5.22656 -0.24326,-1.08067 -0.48352,-2.16059 -0.72266,-3.24024 -0.3173,-1.43453 -0.63309,-2.86823 -0.94336,-4.30078 -0.35955,-1.65802 -0.71217,-3.31369 -1.0625,-4.96875 -0.20553,-0.97195 -0.41471,-1.94518 -0.61719,-2.91601 -0.57031,-2.73238 -1.13102,-5.46106 -1.67773,-8.1836 -2.37061,-11.80522 -4.54403,-23.56865 -6.55859,-35.23437 -2.01457,-11.66572 -3.87094,-23.23409 -5.60743,-34.64649 -1.73648,-11.41239 -3.35229,-22.6696 -4.88867,-33.71484 -1.71895,-12.35785 -3.32853,-24.35818 -4.90039,-36.10547 -1.85416,-13.85706 -3.65368,-27.2967 -5.46875,-40.0625 -0.77204,-5.42996 -1.54785,-10.77778 -2.33594,-15.97656 -1.05289,-6.94564 -2.12604,-13.67695 -3.23632,-20.16797 -0.80051,-4.67999 -1.6237,-9.22234 -2.46875,-13.64453 -0.65081,-3.40574 -1.31631,-6.73123 -2,-9.97461 -0.4807,-2.28033 -0.96747,-4.53386 -1.4668,-6.73047 -0.51303,-2.25691 -1.04132,-4.44336 -1.57813,-6.5957 -0.80158,-3.21411 -1.62471,-6.32673 -2.46679,-9.29883 -3.74896,-13.23174 -7.82472,-24.0131 -11.56836,-31.87891 -1.40398,-2.94982 -2.76152,-5.49041 -4.03711,-7.5957 -0.8504,-1.40353 -1.6641,-2.61304 -2.43164,-3.62305 -1.18406,-1.55807 -2.00163,-2.71053 -2.70703,-3.67968 -0.28713,-0.39445 -0.58868,-0.806 -0.83399,-1.11914 -0.29778,-0.38024 -0.58009,-0.72033 -0.85156,-0.9961 -0.0826,-0.0839 -0.16554,-0.14935 -0.24805,-0.22461 -0.19509,-0.17784 -0.39475,-0.3348 -0.59961,-0.46875 -0.0733,-0.0479 -0.14299,-0.10557 -0.21875,-0.14844 -5e-4,-2.8e-4 -0.001,2.9e-4 -0.002,0 -0.18882,-0.10674 -0.38612,-0.19897 -0.59766,-0.27734 -0.63469,-0.23514 -1.39292,-0.35243 -2.41601,-0.41211 -1.36413,-0.0796 -3.19715,-0.0559 -5.82422,-0.0723 z"
       transform="matrix(0.56444443,0,0,0.56444443,0,-60.799984)"
       sodipodi:nodetypes="cssscsscssssssscssssscscsssccccccscsccssccccccccsssssssssssssssssssssscssc" />
  </g>
</svg>
