<?xml version="1.0" encoding="UTF-8" standalone="no"?>
<svg
   xmlns:dc="http://purl.org/dc/elements/1.1/"
   xmlns:cc="http://creativecommons.org/ns#"
   xmlns:rdf="http://www.w3.org/1999/02/22-rdf-syntax-ns#"
   xmlns:svg="http://www.w3.org/2000/svg"
   xmlns="http://www.w3.org/2000/svg"
   version="1.1"
   id="svg4163"
   viewBox="0 0 512 512"
   height="297"
   width="210">
  <metadata
     id="metadata4175">
    <rdf:RDF>
      <cc:Work
         rdf:about="">
        <dc:format>image/svg+xml</dc:format>
        <dc:type
           rdf:resource="http://purl.org/dc/dcmitype/StillImage" />
        <dc:title></dc:title>
      </cc:Work>
    </rdf:RDF>
  </metadata>
  <defs
     id="defs4173" />
  <style
     id="style4165">.a{fill:none;stroke-width:1px;stroke:#000;}</style>
  <path
     id="path4167"
     d="M 198.8 0.00035 C 189.706 -0.0394213 181.391 5.12832 177.4 13.3004 L 168 32.0004 L 48.0001 32.0004 C 43.7566 32.0004 39.687 33.6861 36.6864 36.6867 C 33.6858 39.6873 32.0001 43.757 32.0001 48.0004 L 32.0001 80.0005 C 32.0001 84.244 33.6858 88.3136 36.6864 91.3142 C 39.687 94.3148 43.7566 96.0005 48.0001 96.0005 L 464.001 96.0005 C 468.244 96.0005 472.314 94.3148 475.315 91.3142 C 478.315 88.3136 480.001 84.244 480.001 80.0005 L 480.001 48.0004 C 480.001 43.757 478.315 39.6873 475.315 36.6867 C 472.314 33.6861 468.244 32.0004 464.001 32.0004 L 344.001 32.0004 L 334.601 13.3004 C 330.539 5.14579 322.211 -0.00618451 313.101 0.00035 L 198.8 0.00035 Z M 64.0001 128.001 L 85.2002 467.001 C 86.7841 492.294 107.758 511.998 133.1 512.001 L 378.901 512.001 C 404.243 511.998 425.217 492.294 426.801 467.001 L 448.001 128.001 L 64.0001 128.001 Z M 256 169.472 C 339.338 169.472 406.858 233.345 406.858 312.182 C 406.858 391.019 339.338 454.896 256 454.896 C 172.663 454.896 105.143 391.019 105.143 312.182 C 105.143 233.345 172.663 169.472 256 169.472 Z M 255 206.286 C 232.659 206.488 210.507 212.969 191.824 225.406 L 347.734 372.892 C 377.723 332.552 374.922 274.95 335.139 237.315 C 312.761 216.146 283.725 206.028 255 206.286 Z M 164.267 251.472 C 134.278 291.812 137.079 349.414 176.862 387.049 C 216.645 424.683 277.474 427.386 320.177 398.958 L 164.267 251.472 Z"
     style="fill:#000000;fill-opacity:1;stroke:#000000;stroke-width:1.000001953125" />
</svg>
