<?xml version="1.0" encoding="UTF-8" standalone="no"?>
<svg
   xmlns:dc="http://purl.org/dc/elements/1.1/"
   xmlns:cc="http://creativecommons.org/ns#"
   xmlns:rdf="http://www.w3.org/1999/02/22-rdf-syntax-ns#"
   xmlns:svg="http://www.w3.org/2000/svg"
   xmlns="http://www.w3.org/2000/svg"
   xmlns:sodipodi="http://sodipodi.sourceforge.net/DTD/sodipodi-0.dtd"
   xmlns:inkscape="http://www.inkscape.org/namespaces/inkscape"
   width="210"
   height="297"
   viewBox="0 0 512 512"
   id="svg4163"
   version="1.1"
   inkscape:version="0.91 r13725"
   sodipodi:docname="trash-bin.svg">
  <metadata
     id="metadata4175">
    <rdf:RDF>
      <cc:Work
         rdf:about="">
        <dc:format>image/svg+xml</dc:format>
        <dc:type
           rdf:resource="http://purl.org/dc/dcmitype/StillImage" />
      </cc:Work>
    </rdf:RDF>
  </metadata>
  <defs
     id="defs4173" />
  <sodipodi:namedview
     pagecolor="#ffffff"
     bordercolor="#666666"
     borderopacity="1"
     objecttolerance="10"
     gridtolerance="10"
     guidetolerance="10"
     inkscape:pageopacity="0"
     inkscape:pageshadow="2"
     inkscape:window-width="1536"
     inkscape:window-height="803"
     id="namedview4171"
     showgrid="false"
     inkscape:zoom="2.1414141"
     inkscape:cx="108.99057"
     inkscape:cy="148.5"
     inkscape:window-x="-8"
     inkscape:window-y="-8"
     inkscape:window-maximized="1"
     inkscape:current-layer="svg4163" />
  <style
     id="style4165">.a{fill:none;stroke-width:1px;stroke:#000;}</style>
  <path
     style="fill:#000000;fill-opacity:1;stroke:#000000;stroke-width:0.41015625px"
     d="M 81.539062 43.5 A 9.7207031 9.7207031 0 0 0 72.761719 48.955078 L 68.90625 56.625 L 19.6875 56.625 A 6.5625 6.5625 0 0 0 13.125 63.1875 L 13.125 76.3125 A 6.5625 6.5625 0 0 0 19.6875 82.875 L 190.3125 82.875 A 6.5625 6.5625 0 0 0 196.875 76.3125 L 196.875 63.1875 A 6.5625 6.5625 0 0 0 190.3125 56.625 L 141.09375 56.625 L 137.23828 48.955078 A 9.84375 9.84375 0 0 0 128.41992 43.5 L 81.539062 43.5 z M 26.25 96 L 34.945312 235.04297 A 19.6875 19.6875 0 0 0 54.591797 253.5 L 155.4082 253.5 A 19.6875 19.6875 0 0 0 175.05469 235.04297 L 183.75 96 L 26.25 96 z M 105 113.00977 C 139.18128 113.00977 166.875 139.2075 166.875 171.54297 C 166.875 203.87844 139.18128 230.07812 105 230.07812 C 70.818714 230.07812 43.125 203.87844 43.125 171.54297 C 43.125 139.2075 70.818714 113.00977 105 113.00977 z M 104.58984 128.10938 C 95.426406 128.1919 86.340452 130.85007 78.677734 135.95117 L 142.625 196.44336 C 154.92527 179.89798 153.77618 156.272 137.45898 140.83594 C 128.28056 132.15315 116.37141 128.00327 104.58984 128.10938 z M 67.375 146.64258 C 55.074726 163.18795 56.223815 186.81394 72.541016 202.25 C 88.858213 217.68606 113.80748 218.79442 131.32227 207.13477 L 67.375 146.64258 z "
     transform="matrix(2.4380952,0,0,2.4380952,0,-106.05714)"
     id="path4167" />
</svg>
